#!OML:ASF F:\VICON\USERDATA\INSTALL\rory3\rory3.ASF
:FULLY-SPECIFIED
:DEGREES
16
root -0.021 17.2304 -61.9035 3.43574 1.5708 3.05224
lowerback 18.9993 -1.51404 -5.43969
upperback 2.57567 -3.24222 -1.71225
thorax -7.64349 -1.42736 2.04923
lowerneck -3.43841 1.59229 -1.29815
upperneck -12.79 2.23639 0.962497
head -3.55982 1.13373 0.493147
rclavicle -9.14409e-015 -2.78299e-014
rhumerus -52.4334 2.1015 -81.4909
rradius 77.5677
rwrist 0.649556
rhand -40.168 32.0158
rfingers 7.12502
rthumb -13.1298 2.44919
lclavicle -9.14409e-015 -2.78299e-014
lhumerus -13.221 -18.1562 85.5539
lradius 111.698
lwrist 25.2216
lhand -37.3126 6.62142
lfingers 7.12502
lthumb -10.3762 36.3454
rfemur -38.2425 -5.34693 16.6772
rtibia 110.361
rfoot 9.38073 -8.03162
rtoes 19.861
lfemur -6.08702 -0.327993 -28.8115
ltibia 39.0088
lfoot -18.7446 0.91341
ltoes -22.9251
17
root -0.0209 17.2984 -61.9035 3.5569 1.5708 3.29911
lowerback 18.8579 -1.75509 -5.72753
upperback 2.33753 -3.61221 -1.62274
thorax -7.77643 -1.58744 2.39651
lowerneck -3.16267 1.79236 -1.28641
upperneck -12.7288 2.47861 0.737236
head -3.58888 1.2599 0.409977
rclavicle 3.95581e-014 4.77083e-015
rhumerus -53.6512 2.23304 -81.0404
rradius 77.7111
rwrist 0.559599
rhand -40.5166 32.3162
rfingers 7.12502
rthumb -13.4658 2.77151
lclavicle 3.95581e-014 4.77083e-015
lhumerus -12.3846 -17.87 85.4731
lradius 112.171
lwrist 24.9532
lhand -37.2559 6.57679
lfingers 7.12502
lthumb -10.3215 36.3035
rfemur -40.2298 -4.84634 16.7341
rtibia 108.299
rfoot 7.80965 -7.48845
rtoes 14.8187
lfemur -3.5161 -0.11903 -29.0258
ltibia 37.2573
lfoot -17.0076 0.531548
ltoes -25.8849
18
root -0.0209 17.3827 -61.9035 3.73181 1.5708 3.03993
lowerback 18.8088 -1.99002 -5.59005
upperback 1.98817 -3.88779 -1.38672
thorax -8.10219 -1.70343 2.64761
lowerneck -3.06176 1.9605 -1.21049
upperneck -12.4098 2.67142 0.441011
head -3.491 1.36139 0.296217
rclavicle 2.90226e-014 3.53837e-014
rhumerus -54.9934 2.35071 -80.6231
rradius 77.9004
rwrist 0.460492
rhand -39.9264 33.1707
rfingers 7.12502
rthumb -12.8968 3.58921
lclavicle 2.90226e-014 3.53837e-014
lhumerus -11.8894 -17.5557 85.4216
lradius 112.776
lwrist 24.9329
lhand -36.7972 6.08164
lfingers 7.12502
lthumb -9.87894 35.8299
rfemur -42.0077 -4.09929 17.425
rtibia 105.693
rfoot 6.69963 -7.25426
rtoes 9.13104
lfemur -1.08226 0.0616879 -28.6262
ltibia 35.4913
lfoot -14.8617 0.196477
ltoes -27.5613
19
root -0.0208 17.4747 -61.9035 4.01984 1.5708 2.55374
lowerback 18.4731 -2.16557 -5.56339
upperback 1.60534 -4.07382 -0.97375
thorax -8.29214 -1.77423 3.11696
lowerneck -2.6572 2.20202 -1.27369
upperneck -12.4012 2.95885 0.126254
head -3.56161 1.51649 0.193331
rclavicle 4.79071e-014 6.75868e-015
rhumerus -56.3107 2.74256 -80.1725
rradius 78.4613
rwrist -0.516651
rhand -38.6271 33.5791
rfingers 7.12502
rthumb -11.6441 3.92265
lclavicle 4.79071e-014 6.75868e-015
lhumerus -11.7316 -16.9828 85.5104
lradius 113.398
lwrist 25.3297
lhand -36.8814 5.11119
lfingers 7.12502
lthumb -9.96024 34.8555
rfemur -43.684 -2.95887 18.4239
rtibia 102.671
rfoot 5.82189 -7.05201
rtoes 7.3319
lfemur 1.17659 0.384431 -27.8993
ltibia 33.6295
lfoot -12.2615 -0.347124
ltoes -28.7924
20
root -0.0208 17.5573 -61.9035 4.30219 1.5708 2.38126
lowerback 17.9529 -2.26833 -5.68064
upperback 1.42117 -4.18306 -0.699809
thorax -8.16723 -1.8209 3.4799
lowerneck -2.44666 2.38119 -1.23549
upperneck -12.6314 3.16488 -0.185008
head -3.67725 1.62777 0.0754489
rclavicle 3.77691e-015 -6.75868e-015
rhumerus -57.2623 2.85171 -79.6785
rradius 79.2491
rwrist -2.34699
rhand -37.8304 33.6699
rfingers 7.12502
rthumb -10.8756 3.97158
lclavicle 3.77691e-015 -6.75868e-015
lhumerus -11.3773 -16.6521 85.5374
lradius 113.915
lwrist 25.8166
lhand -37.3092 4.72584
lfingers 7.12502
lthumb -10.373 34.45
rfemur -45.1564 -1.88855 18.872
rtibia 99.3636
rfoot 4.95348 -6.53313
rtoes 5.45415
lfemur 3.41341 0.661751 -27.5479
ltibia 31.6175
lfoot -9.16125 -1.12027
ltoes -29.4895
21
root -0.0208 17.6411 -61.9035 4.5086 1.5708 2.83307
lowerback 17.5261 -2.43944 -5.87591
upperback 1.27855 -4.42941 -0.74789
thorax -8.0534 -1.93631 3.57255
lowerneck -2.62709 2.45707 -1.07144
upperneck -12.3749 3.24016 -0.476796
head -3.54404 1.66705 -0.0447477
rclavicle -4.35338e-014 -2.54444e-014
rhumerus -58.1083 2.69773 -79.2726
rradius 79.6441
rwrist -3.44479
rhand -38.8002 33.3215
rfingers 7.12502
rthumb -11.811 3.67457
lclavicle -4.35338e-014 -2.54444e-014
lhumerus -11.1711 -16.6925 85.5428
lradius 114.553
lwrist 26.4198
lhand -37.5967 4.69228
lfingers 7.12502
lthumb -10.6503 34.4024
rfemur -46.2464 -1.3224 18.3339
rtibia 95.7905
rfoot 3.86272 -5.72204
rtoes 2.31108
lfemur 5.79508 0.61779 -27.9706
ltibia 29.3631
lfoot -5.57526 -1.85819
ltoes -29.5775
22
root -0.0207 17.7304 -61.9035 4.66929 1.5708 2.93969
lowerback 17.0681 -2.63841 -5.68573
upperback 1.13331 -4.63307 -0.765503
thorax -7.95492 -2.04413 3.46812
lowerneck -2.94454 2.56366 -0.873861
upperneck -11.8198 3.36973 -0.675248
head -3.2834 1.7276 -0.134866
rclavicle 3.27995e-015 3.97569e-015
rhumerus -59.0038 2.47158 -79.0174
rradius 79.7714
rwrist -3.67503
rhand -39.7412 32.7916
rfingers 7.12502
rthumb -12.7183 3.19889
lclavicle 3.27995e-015 3.97569e-015
lhumerus -11.2272 -16.7887 85.4574
lradius 115.35
lwrist 27.3696
lhand -37.3867 4.55362
lfingers 7.12502
lthumb -10.4477 34.274
rfemur -47.0188 -0.690137 18.2096
rtibia 91.8682
rfoot 2.60822 -5.0622
rtoes -1.14213
lfemur 8.33765 0.386683 -28.0193
ltibia 26.7956
lfoot -1.23432 -2.39612
ltoes -28.6185
23
root -0.0207 17.8184 -61.9035 4.78191 1.5708 2.85403
lowerback 16.4634 -2.79215 -5.49971
upperback 1.28418 -4.74087 -0.605176
thorax -7.446 -2.12498 3.51131
lowerneck -4.58279 2.77316 -0.996879
upperneck -10.806 3.65954 -0.822348
head -2.64045 1.87529 -0.127306
rclavicle 5.07895e-014 3.97569e-016
rhumerus -59.2303 2.49655 -78.7485
rradius 79.9372
rwrist -3.83081
rhand -40.5574 31.3271
rfingers 7.12502
rthumb -13.5051 1.78501
lclavicle 5.07895e-014 3.97569e-016
lhumerus -10.8361 -16.6185 85.4098
lradius 116.059
lwrist 28.2201
lhand -37.2522 4.62024
lfingers 7.12502
lthumb -10.3179 34.3471
rfemur -47.4636 0.189646 18.2676
rtibia 87.6292
rfoot 1.31121 -4.36255
rtoes -2.69082
lfemur 10.9807 0.0689319 -27.9765
ltibia 23.8921
lfoot 3.83978 -2.39107
ltoes -26.3322
24
root -0.0206 17.8999 -61.9035 4.75483 1.5708 2.77439
lowerback 15.9228 -3.05163 -5.45441
upperback 1.84316 -4.98352 -0.184073
thorax -6.48525 -2.28927 3.91899
lowerneck -7.95885 3.08665 -1.93917
upperneck -9.40506 4.18361 -0.74732
head -1.62905 2.15288 0.12312
rclavicle 4.33351e-014 -6.75868e-015
rhumerus -58.3227 3.09819 -78.2334
rradius 79.9581
rwrist -3.99809
rhand -41.9622 29.0192
rfingers 7.12502
rthumb -14.8588 -0.427968
lclavicle 4.33351e-014 -6.75868e-015
lhumerus -9.75866 -15.7871 85.4006
lradius 116.613
lwrist 28.5596
lhand -37.611 5.8255
lfingers 7.12502
lthumb -10.6641 35.5349
rfemur -47.471 1.00981 18.2562
rtibia 83.1421
rfoot 0.432903 -3.68198
rtoes -4.01996
lfemur 13.721 -0.456272 -28.0907
ltibia 20.935
lfoot 9.20476 -1.76529
ltoes -23.6788
25
root -0.0206 17.9713 -61.9035 4.81144 1.5708 2.67613
lowerback 15.9736 -3.07268 -5.14763
upperback 0.357684 -5.02971 -0.224327
thorax -8.14763 -2.22795 3.78857
lowerneck -3.02191 3.18818 -1.01694
upperneck -10.2525 4.16024 -1.35209
head -2.72137 2.13934 -0.319185
rclavicle -7.8023e-015 -2.78299e-015
rhumerus -62.1376 3.26221 -78.1682
rradius 80.5788
rwrist -4.3468
rhand -42.1114 28.788
rfingers 7.12502
rthumb -15.0024 -0.648554
lclavicle -7.8023e-015 -2.78299e-015
lhumerus -13.3274 -16.4783 86.4335
lradius 117.452
lwrist 28.7164
lhand -37.7482 6.84582
lfingers 7.12502
lthumb -10.7964 36.5483
rfemur -47.391 1.58565 18.2788
rtibia 78.4917
rfoot -0.586967 -2.84278
rtoes -6.49639
lfemur 16.342 -1.01458 -28.1953
ltibia 17.9099
lfoot 14.8088 -0.263886
ltoes -20.2459
